<svg width="120" height="120" viewBox="0 0 120 120" fill="none" xmlns="http://www.w3.org/2000/svg">
  <!-- teal connections (right) -->
  <g stroke="#5ec8c8" stroke-width="3" fill="none" stroke-linecap="round">
    <line x1="62" y1="50" x2="85" y2="35"/>
    <line x1="85" y1="35" x2="105" y2="25"/>
    <line x1="64" y1="55" x2="90" y2="55"/>
    <line x1="90" y1="55" x2="110" y2="55"/>
  </g>
  <g fill="#5ec8c8">
    <circle cx="105" cy="25" r="5"/>
    <circle cx="85" cy="35" r="4"/>
    <circle cx="110" cy="55" r="5"/>
    <circle cx="90" cy="55" r="4"/>
  </g>

  <!-- purple connections (left/top) -->
  <g stroke="#4a235a" stroke-width="3" fill="none" stroke-linecap="round">
    <line x1="58" y1="50" x2="58" y2="15"/>
    <line x1="55" y1="50" x2="35" y2="35"/>
    <line x1="35" y1="35" x2="18" y2="28"/>
    <line x1="52" y1="55" x2="25" y2="58"/>
  </g>
  <g fill="#4a235a">
    <circle cx="58" cy="15" r="5"/>
    <circle cx="18" cy="28" r="5"/>
    <circle cx="35" cy="35" r="4"/>
    <circle cx="25" cy="58" r="5"/>
  </g>

  <!-- bottle cap -->
  <rect x="45" y="48" width="22" height="10" rx="2" fill="#4a235a" stroke="#c9b8d9" stroke-width="2"/>

  <!-- bottle body -->
  <path d="M40 58 H72 L84 100 Q84 108 76 108 H36 Q28 108 28 100 Z" fill="#4a235a" stroke="#c9b8d9" stroke-width="3"/>

  <!-- liquid -->
  <path d="M42 59 H70 L73 71 H39 Z" fill="#5ec8c8"/>
</svg>
